<svg width="44" height="65" viewBox="0 0 44 65" fill="none" xmlns="http://www.w3.org/2000/svg">
<path d="M43.0476 61.0238C38.9123 53.9249 38.8633 24.0178 38.8633 23.7168V23.2283C39.1318 23.1651 39.4001 23.1062 39.669 23.0387C41.0838 22.6789 42.0714 21.4016 42.0633 19.9418V14.6449C42.08 13.2581 41.1801 12.0264 39.8539 11.6209C39.3836 8.65114 36.7524 6.51216 33.7493 6.65841C32.2044 3.98142 28.9702 2.78668 26.0561 3.8168C23.872 1.11206 20.3955 -0.199554 16.969 0.388442C13.5425 0.976439 10.7022 3.37205 9.54481 6.65028H9.53019C6.6422 6.66366 4.18997 8.76914 3.73985 11.6219C2.4131 12.0264 1.51286 13.2581 1.53023 14.645V19.9418C1.52223 21.4017 2.5101 22.6792 3.92497 23.0387C4.19347 23.1062 4.46172 23.1651 4.73022 23.2283V23.7168C4.73022 24.0178 4.68234 53.9229 0.546365 61.0228C0.155868 61.6907 0.150992 62.516 0.533365 63.1884C0.909488 63.8496 1.61386 64.2557 2.37448 64.2499H41.219C41.9796 64.2557 42.684 63.8497 43.0601 63.1884C43.4425 62.5163 43.4377 61.6915 43.0476 61.0238ZM9.53019 8.78352C9.73594 8.78289 9.94131 8.79927 10.1442 8.83252C10.6942 8.92639 11.2231 8.57877 11.3552 8.03665C12.0712 5.16741 14.4145 2.99218 17.329 2.4913C20.2435 1.99043 23.1786 3.25855 24.8114 5.72416C25.1133 6.18303 25.7151 6.33653 26.1998 6.07828C27.2613 5.51754 28.5098 5.42916 29.6397 5.83479C30.7696 6.24041 31.6768 7.10265 32.1393 8.21052C32.3296 8.67139 32.8142 8.93852 33.3054 8.85327C33.5555 8.80852 33.8092 8.78527 34.0633 8.78352C35.778 8.79277 37.2675 9.96514 37.6793 11.6298L37.1284 11.7523C27.0283 13.9751 16.5656 13.9751 6.46558 11.7523L5.91421 11.6296C6.32596 9.96501 7.81545 8.79264 9.53019 8.78352ZM4.44322 20.9698C3.97834 20.8464 3.65697 20.4227 3.66347 19.9417V14.6449C3.66335 14.3211 3.81047 14.0147 4.06322 13.8124C4.31597 13.61 4.64697 13.5334 4.96297 13.6042L6.00358 13.8355C16.408 16.1251 27.186 16.1251 37.5904 13.8355L38.631 13.6042C38.9469 13.5335 39.2778 13.6101 39.5304 13.8125C39.783 14.0149 39.93 14.3211 39.9299 14.6449V19.9417C39.9365 20.4225 39.6154 20.8462 39.1508 20.9698C38.6231 21.1011 38.095 21.2251 37.5664 21.3417L37.562 21.3437L37.557 21.3438C27.1838 23.7147 16.4095 23.7147 6.03633 21.3438L6.03146 21.3437L6.02708 21.3417C5.49896 21.2251 4.97096 21.1011 4.44322 20.9698ZM2.3896 62.0967C6.81245 54.504 6.86358 24.9698 6.86358 23.7167V23.7114C7.36933 23.8181 7.8822 23.8958 8.39094 23.9914C8.94282 24.0954 9.49294 24.2041 10.0477 24.2952C10.7646 24.4126 11.4853 24.5065 12.2064 24.602C12.8039 24.6815 13.3994 24.7697 13.9993 24.8343C14.6343 24.9023 15.2717 24.945 15.9088 24.9963C16.5956 25.052 17.281 25.1192 17.97 25.1554C18.3736 25.1764 18.7781 25.1753 19.1821 25.1897C20.0534 25.221 20.924 25.2635 21.7969 25.2635C22.6697 25.2635 23.5402 25.221 24.4116 25.1897C24.8156 25.1753 25.2201 25.1764 25.6237 25.1554C26.3125 25.1192 26.9977 25.052 27.6845 24.9963C28.3217 24.9449 28.9593 24.9023 29.5944 24.8343C30.1942 24.7697 30.7896 24.6815 31.3869 24.602C32.1082 24.5064 32.8289 24.4126 33.5459 24.2952C34.1007 24.2041 34.6508 24.0954 35.2027 23.9914C35.7113 23.8958 36.2242 23.8181 36.73 23.7114V23.7167C36.73 24.9698 36.7812 54.504 41.204 62.0967L41.2191 62.1165L2.3896 62.0967Z" fill="#FEAD04" stroke="#FEAD04" stroke-width="0.5"/>
<path d="M15.7061 6.33961C15.8097 6.43374 15.9286 6.50949 16.0577 6.56361C16.3161 6.67749 16.6103 6.67749 16.8686 6.56361C16.9978 6.50949 17.117 6.43374 17.2207 6.33961C17.3146 6.23562 17.3903 6.11662 17.4447 5.98749C17.4993 5.85924 17.5283 5.72162 17.5301 5.58224C17.5301 4.99312 17.0526 4.51562 16.4635 4.51562C15.8743 4.51562 15.3969 4.99312 15.3969 5.58224C15.3984 5.72162 15.4272 5.85924 15.4817 5.98749C15.536 6.11674 15.6118 6.23586 15.7061 6.33961Z" fill="#FEAD04" stroke="#FEAD04" stroke-width="0.5"/>
<path d="M13.5728 11.6726C13.6764 11.7667 13.7953 11.8425 13.9244 11.8966C14.3214 12.0668 14.7822 11.9781 15.0875 11.6726C15.1814 11.5686 15.2572 11.4496 15.3115 11.3205C15.3713 11.194 15.4005 11.0551 15.3969 10.9152C15.3928 10.6329 15.2823 10.3625 15.0875 10.1579C14.9838 10.0637 14.8647 9.98798 14.7354 9.93386C14.5409 9.84836 14.3247 9.82574 14.1167 9.86924C14.0498 9.88124 13.985 9.90299 13.9244 9.93386C13.8565 9.95698 13.792 9.98923 13.7328 10.0297C13.6792 10.0724 13.626 10.1151 13.5729 10.1579C13.3779 10.3622 13.2674 10.6327 13.2635 10.9152C13.265 11.0546 13.2939 11.1922 13.3484 11.3205C13.4027 11.4497 13.4787 11.5687 13.5728 11.6726Z" fill="#FEAD04" stroke="#FEAD04" stroke-width="0.5"/>
<path d="M19.9728 8.47424C20.3934 8.88674 21.0668 8.88674 21.4874 8.47424C21.5813 8.37024 21.657 8.25124 21.7114 8.12211C21.7711 7.99562 21.8005 7.85674 21.7968 7.71687C21.7926 7.43449 21.6821 7.16412 21.4874 6.95949C21.3836 6.86537 21.2645 6.78962 21.1353 6.7355C20.738 6.56887 20.2795 6.65725 19.9726 6.95949C19.7778 7.16387 19.6673 7.43437 19.6633 7.71687C19.6648 7.85624 19.6936 7.99387 19.7481 8.12211C19.8026 8.25136 19.8786 8.37036 19.9728 8.47424Z" fill="#FEAD04" stroke="#FEAD04" stroke-width="0.5"/>
<path d="M23.9302 11.9818C24.0696 11.9801 24.2072 11.9511 24.3354 11.8965C24.4647 11.8423 24.5838 11.7666 24.6876 11.6725C24.7814 11.5685 24.8572 11.4495 24.9116 11.3204C24.9662 11.1922 24.9952 11.0545 24.9969 10.9152C24.9928 10.6329 24.8823 10.3625 24.6876 10.1579C24.6339 10.1152 24.5808 10.0725 24.5277 10.0297C24.4683 9.98923 24.4037 9.95698 24.3354 9.93386C24.2748 9.90311 24.2101 9.88136 24.1432 9.86924C23.9352 9.82574 23.7189 9.84836 23.5244 9.93386C23.3953 9.98798 23.2765 10.0637 23.1728 10.1579C22.9761 10.361 22.8652 10.6324 22.8635 10.9151C22.8607 11.1989 22.9722 11.4717 23.1728 11.6723C23.3735 11.8731 23.6464 11.9846 23.9302 11.9818Z" fill="#FEAD04" stroke="#FEAD04" stroke-width="0.5"/>
<path d="M28.1967 9.85171C28.4795 9.84946 28.7506 9.73871 28.9541 9.54233C29.048 9.43834 29.1237 9.31934 29.1781 9.19021C29.2379 9.06371 29.2671 8.92484 29.2635 8.78496C29.2594 8.50259 29.1489 8.23222 28.9541 8.02759C28.5291 7.62622 27.8646 7.62622 27.4395 8.02759C27.2445 8.23197 27.134 8.50246 27.1301 8.78496C27.1272 9.06871 27.2387 9.34171 27.4395 9.54233C27.6429 9.73871 27.914 9.84946 28.1967 9.85171Z" fill="#FEAD04" stroke="#FEAD04" stroke-width="0.5"/>
<path d="M10.104 46.1184C9.82125 46.1051 9.54488 46.205 9.33588 46.396C9.12688 46.587 9.00263 46.8532 8.99051 47.1361C8.92276 48.6496 8.83426 50.0716 8.72801 51.3621C8.67976 51.9492 9.11638 52.4644 9.7035 52.5131C9.73313 52.5152 9.76288 52.5162 9.792 52.5162C10.3467 52.5156 10.8084 52.0898 10.854 51.537C10.9624 50.2203 11.0524 48.7713 11.1217 47.2317C11.1345 46.9491 11.0345 46.673 10.8436 46.4641C10.6527 46.2552 10.3867 46.131 10.104 46.1184Z" fill="#FEAD04" stroke="#FEAD04" stroke-width="0.5"/>
<path d="M10.7875 28.2641C10.579 28.0724 10.3022 27.972 10.0192 27.9856C9.73648 27.9974 9.47011 28.121 9.27848 28.3292C9.08698 28.5375 8.98598 28.8133 8.99786 29.096C9.00048 29.1606 9.26823 35.7043 9.12498 42.8969C9.11348 43.4858 9.58136 43.9726 10.1702 43.9844H10.1921C10.7728 43.984 11.2467 43.5193 11.2582 42.9385C11.4025 35.6813 11.1322 29.073 11.1291 29.0063C11.1191 28.7232 10.9961 28.456 10.7875 28.2641Z" fill="#FEAD04" stroke="#FEAD04" stroke-width="0.5"/>
</svg>
