<svg width="49" height="63" viewBox="0 0 49 63" fill="none" xmlns="http://www.w3.org/2000/svg">
<path d="M47.8704 20.6663C47.4488 19.8746 46.6298 19.3828 45.7329 19.3828H38.8536C38.2792 16.1526 35.4524 13.6914 32.0597 13.6914C28.667 13.6914 25.8402 16.1526 25.2659 19.3828H18.2963C18.8429 18.5463 19.1621 17.5482 19.1621 16.4766C19.1621 13.5386 16.772 11.1484 13.834 11.1484C10.896 11.1484 8.50589 13.5386 8.50589 16.4766C8.50589 17.5482 8.82509 18.5463 9.37171 19.3828H3.68926C2.79232 19.3828 1.97336 19.8746 1.55172 20.6663C1.13019 21.4579 1.17911 22.412 1.67959 23.1562L17.9299 47.3212V61.0391C17.9299 61.4474 18.1356 61.8282 18.4772 62.0519C18.6774 62.183 18.9086 62.25 19.1409 62.25C19.3049 62.25 19.4695 62.2167 19.6244 62.1493L30.765 57.2979C31.2067 57.1055 31.4924 56.6695 31.4924 56.1877V47.3211L47.7426 23.1561C48.243 22.412 48.2921 21.4579 47.8704 20.6663ZM32.0597 16.1133C34.1107 16.1133 35.8428 17.499 36.3726 19.3828H27.747C28.2766 17.499 30.0089 16.1133 32.0597 16.1133ZM13.8341 13.5703C15.4366 13.5703 16.7404 14.8741 16.7404 16.4766C16.7404 18.079 15.4366 19.3828 13.8341 19.3828C12.2317 19.3828 10.9279 18.079 10.9279 16.4766C10.9279 14.8741 12.2317 13.5703 13.8341 13.5703ZM29.2765 46.276C29.1422 46.4757 29.0704 46.711 29.0704 46.9517V55.3943L20.3516 59.1909V48.1627H24.7264C25.3952 48.1627 25.9373 47.6205 25.9373 46.9517C25.9373 46.2829 25.3952 45.7408 24.7264 45.7408H19.7857L7.59841 27.6172H32.0597C32.7285 27.6172 33.2706 27.0751 33.2706 26.4062C33.2706 25.7374 32.7285 25.1953 32.0597 25.1953H5.96982L3.68975 21.8047H45.7328L29.2765 46.276Z" fill="#FEAD04" stroke="#FEAD04" stroke-width="0.5"/>
<path d="M28.8436 0.25C25.9057 0.25 23.5155 2.64015 23.5155 5.57812C23.5155 8.5161 25.9058 10.9062 28.8436 10.9062C31.7816 10.9062 34.1718 8.5161 34.1718 5.57812C34.1718 2.64015 31.7816 0.25 28.8436 0.25ZM28.8436 8.48438C27.2412 8.48438 25.9374 7.18056 25.9374 5.57812C25.9374 3.97569 27.2412 2.67188 28.8436 2.67188C30.4461 2.67188 31.7499 3.97569 31.7499 5.57812C31.7499 7.18056 30.4461 8.48438 28.8436 8.48438Z" fill="#FEAD04" stroke="#FEAD04" stroke-width="0.5"/>
<path d="M41.7852 6.10156C41.1164 6.10156 40.5742 6.6437 40.5742 7.3125V14.1947C40.5742 14.8637 41.1164 15.4058 41.7852 15.4058C42.454 15.4058 42.9961 14.8637 42.9961 14.1949V7.3125C42.9961 6.6437 42.454 6.10156 41.7852 6.10156Z" fill="#FEAD04" stroke="#FEAD04" stroke-width="0.5"/>
<path d="M42.6413 2.4798C42.4161 2.25457 42.1036 2.125 41.7852 2.125C41.4667 2.125 41.1543 2.25457 40.929 2.4798C40.7038 2.70504 40.5742 3.01746 40.5742 3.33594C40.5742 3.65441 40.7038 3.96684 40.929 4.19207C41.1543 4.4173 41.4667 4.54688 41.7852 4.54688C42.1036 4.54688 42.4161 4.4173 42.6413 4.19207C42.8665 3.96684 42.9961 3.65441 42.9961 3.33594C42.9961 3.01746 42.8665 2.70504 42.6413 2.4798Z" fill="#FEAD04" stroke="#FEAD04" stroke-width="0.5"/>
<path d="M17.9513 1.79688C17.2825 1.79688 16.7404 2.33901 16.7404 3.00781V7.97265C16.7404 8.64145 17.2825 9.18359 17.9513 9.18359C18.6201 9.18359 19.1622 8.64145 19.1622 7.97265V3.00781C19.1622 2.33901 18.6201 1.79688 17.9513 1.79688Z" fill="#FEAD04" stroke="#FEAD04" stroke-width="0.5"/>
<path d="M1.46094 0.25C0.792137 0.25 0.25 0.792137 0.25 1.46094V9.35238C0.25 10.0212 0.792137 10.5633 1.46094 10.5633C2.12974 10.5633 2.67188 10.0212 2.67188 9.35238V1.46094C2.67188 0.792137 2.12974 0.25 1.46094 0.25Z" fill="#FEAD04" stroke="#FEAD04" stroke-width="0.5"/>
<path d="M2.31707 13.0384C2.09184 12.812 1.77941 12.6836 1.46094 12.6836C1.14246 12.6836 0.830039 12.812 0.604805 13.0384C0.37957 13.2636 0.25 13.5748 0.25 13.8945C0.25 14.213 0.37957 14.5254 0.604805 14.7507C0.830039 14.9759 1.14246 15.1055 1.46094 15.1055C1.77941 15.1055 2.09184 14.9759 2.31707 14.7507C2.54231 14.5254 2.67188 14.213 2.67188 13.8945C2.67188 13.5748 2.54231 13.2636 2.31707 13.0384Z" fill="#FEAD04" stroke="#FEAD04" stroke-width="0.5"/>
<path d="M38.3002 25.5501C38.075 25.3249 37.7626 25.1953 37.4441 25.1953C37.1244 25.1953 36.812 25.3249 36.588 25.5501C36.3615 25.7754 36.2332 26.0878 36.2332 26.4062C36.2332 26.7247 36.3615 27.0371 36.588 27.2624C36.8132 27.4876 37.1244 27.6172 37.4441 27.6172C37.7626 27.6172 38.0738 27.4876 38.3002 27.2624C38.5255 27.0371 38.655 26.7247 38.655 26.4062C38.655 26.0878 38.5255 25.7754 38.3002 25.5501Z" fill="#FEAD04" stroke="#FEAD04" stroke-width="0.5"/>
</svg>
